<?xml version="1.0" encoding="UTF-8" standalone="no"?><!DOCTYPE svg PUBLIC "-//W3C//DTD SVG 1.1//EN" "http://www.w3.org/Graphics/SVG/1.1/DTD/svg11.dtd"><svg width="100%" height="100%" viewBox="0 0 5202 2285" version="1.1" xmlns="http://www.w3.org/2000/svg" xmlns:xlink="http://www.w3.org/1999/xlink" xml:space="preserve" xmlns:serif="http://www.serif.com/" style="fill-rule:evenodd;clip-rule:evenodd;stroke-linecap:round;stroke-linejoin:round;stroke-miterlimit:1.5;"><path d="M542.188,667.188l-542.187,0l0,-128.125l542.187,0l0,-539.062l128.125,0l0,539.062l410.938,0l0,-539.062l128.125,0l0,539.062l410.938,0l0,-539.062l128.125,0l0,539.062l94.331,-0c21.165,-36.866 60.928,-61.719 106.451,-61.719c5.028,0 9.985,0.303 14.855,0.892l248.628,-369.844l88.663,59.603l-247.455,368.099c0.6,0.98 1.187,1.97 1.76,2.968l228.706,0l0,128.125l-232.547,-0c-21.925,33.397 -59.71,55.469 -102.61,55.469c-6.695,0 -13.265,-0.537 -19.669,-1.572l-181.112,269.412l0,87.629l535.937,0l0,128.125l-535.937,0l0,410.938l535.937,0l0,128.125l-535.937,0l0,539.062l-128.125,0l0,-539.062l-410.938,0l0,539.062l-128.125,0l0,-539.062l-410.938,0l0,539.062l-128.125,0l0,-539.062l-542.187,0l0,-128.125l542.187,0l0,-362.157l-132.516,116.338c1.852,8.47 2.829,17.266 2.829,26.288c0,67.696 -54.96,122.656 -122.656,122.656c-67.696,0 -122.656,-54.96 -122.656,-122.656c0,-67.696 54.96,-122.656 122.656,-122.656c19.223,0 37.419,4.432 53.621,12.328l92.353,-81.078l-435.818,0l0,-128.125l542.187,0l0,-410.938Zm539.063,0l-410.938,0l0,333.196l89.857,-78.887c-3.563,-11.485 -5.482,-23.69 -5.482,-36.341c0,-67.696 54.96,-122.656 122.656,-122.656c67.696,0 122.656,54.96 122.656,122.656c0,16.907 -3.428,33.019 -9.626,47.68l90.876,86.845l0,-352.493Zm539.063,0l-410.938,0l0,410.938l351.423,0l59.514,-88.53l0,-322.408Zm216.738,0l-88.613,0l0,131.816l88.613,-131.816Zm-216.738,950l0,-410.938l-16.915,0l-93.339,138.846c7.576,15.934 11.817,33.756 11.817,52.56c0,67.696 -54.96,122.656 -122.656,122.656c-67.696,0 -122.656,-54.96 -122.656,-122.656c0,-13.208 2.092,-25.931 5.963,-37.855l-73.15,-69.905l0,327.292l410.938,0Zm-950,0l410.938,0l0,-410.938l-410.938,0l0,410.938Zm162.832,-617.593l-89.451,78.53l244.08,0l-78.092,-74.628c-10.304,2.813 -21.147,4.315 -32.338,4.315c-15.579,0 -30.484,-2.911 -44.199,-8.218Zm641.522,206.655l-198.186,0l79.972,76.424c13.319,-4.962 27.729,-7.674 42.767,-7.674c9.344,0 18.445,1.047 27.193,3.03l48.254,-71.78Zm-75.447,130.078c-33.848,0 -61.328,27.48 -61.328,61.328c0,33.848 27.48,61.328 61.328,61.328c33.848,0 61.328,-27.48 61.328,-61.328c0,-33.848 -27.48,-61.328 -61.328,-61.328Zm-521.875,-512.5c-33.848,0 -61.328,27.48 -61.328,61.328c0,33.848 27.48,61.328 61.328,61.328c33.848,0 61.328,-27.48 61.328,-61.328c0,-33.848 -27.48,-61.328 -61.328,-61.328Zm-587.5,512.5c-33.848,0 -61.328,27.48 -61.328,61.328c0,33.848 27.48,61.328 61.328,61.328c33.848,0 61.328,-27.48 61.328,-61.328c0,-33.848 -27.48,-61.328 -61.328,-61.328Z" style="fill:url(#_Linear1);"/><path d="M2124.208,336.328l-124.444,234.525l-36.09,60.604c0,0 -13.259,20.413 -23.365,17.945c-11.189,-2.733 -21.929,-19.419 -29.412,-31.754c-11.519,-18.99 -39.704,-82.185 -39.704,-82.185l37.5,0.474l30.186,38.518l10.339,6.165l174.989,-244.293Z" style="fill:#fff;stroke:#fff;stroke-width:7.16px;"/><g transform="matrix(923.617137,0,0,923.617137,4407.780333,1383.915422)"></g><text x="2699.449px" y="1383.915px" style="font-family:'DINAlternate-Bold', 'DIN Alternate', sans-serif;font-weight:700;font-size:923.617px;fill:#196abc;">R<tspan x="3246.043px 3707.852px " y="1383.915px 1383.915px ">TM</tspan></text><g transform="matrix(476.910569,0,0,476.910569,4870.801076,1323.73568)"></g><text x="4364.596px" y="1323.736px" style="font-family:'DINAlternate-Bold', 'DIN Alternate', sans-serif;font-weight:700;font-size:476.911px;fill:#52b788;">i<tspan x="4502.779px 4659.125px " y="1323.736px 1323.736px ">fy</tspan></text><defs><linearGradient id="_Linear1" x1="0" y1="0" x2="1" y2="0" gradientUnits="userSpaceOnUse" gradientTransform="matrix(1762.144852,0,0,2284.375,-100.810185,1173.4375)"><stop offset="0" style="stop-color:#1565c0;stop-opacity:1"/><stop offset="1" style="stop-color:#52b788;stop-opacity:1"/></linearGradient></defs></svg>